<?xml version="1.0" encoding="UTF-8"?>
<svg xmlns="http://www.w3.org/2000/svg" xmlns:xlink="http://www.w3.org/1999/xlink" width="30pt" height="30pt" viewBox="0 0 30 30" version="1.1">
<g id="surface1">
<path style="fill-rule:nonzero;fill:rgb(100%,76.470588%,52.54902%);fill-opacity:1;stroke-width:1;stroke-linecap:butt;stroke-linejoin:miter;stroke:rgb(100%,56.078431%,12.156863%);stroke-opacity:1;stroke-miterlimit:4;" d="M 5478.155525 7423.593737 C 5448.065266 7408.063281 5419.916314 7363.413219 5419.916314 7330.411 C 5419.916314 7276.054403 5477.184872 7219.7565 5531.541468 7219.7565 C 5570.367609 7219.7565 5616.958977 7254.700026 5629.577473 7293.526167 C 5660.638385 7388.650211 5564.543688 7472.126413 5478.155525 7423.593737 Z M 5478.155525 7423.593737 " transform="matrix(0.00402435,0,0,-0.00402435,3.618044,29.94155)"/>
<path style="fill-rule:nonzero;fill:rgb(100%,76.470588%,52.54902%);fill-opacity:1;stroke-width:1;stroke-linecap:butt;stroke-linejoin:miter;stroke:rgb(100%,56.078431%,12.156863%);stroke-opacity:1;stroke-miterlimit:4;" d="M 5018.06576 6964.474626 C 4987.975501 6947.973516 4959.826549 6903.323455 4959.826549 6870.321235 C 4959.826549 6809.170064 5029.713602 6751.901507 5089.89412 6764.520002 C 5122.89634 6772.28523 5165.605094 6815.964638 5175.311629 6850.908165 C 5184.047511 6888.763652 5156.869212 6946.032209 5120.955033 6964.474626 C 5084.070199 6983.887696 5053.009287 6983.887696 5018.06576 6964.474626 Z M 5018.06576 6964.474626 " transform="matrix(0.00402435,0,0,-0.00402435,3.618044,29.94155)"/>
<path style="fill-rule:nonzero;fill:rgb(100%,76.470588%,52.54902%);fill-opacity:1;stroke-width:1;stroke-linecap:butt;stroke-linejoin:miter;stroke:rgb(100%,56.078431%,12.156863%);stroke-opacity:1;stroke-miterlimit:4;" d="M 4594.860829 6506.326168 C 4566.711877 6492.737019 4314.341964 6243.279066 4241.54295 6156.890904 C 4197.863542 6104.475614 4197.863542 6059.825552 4244.454911 6014.204837 C 4271.633209 5986.055885 4285.222358 5980.231964 4321.136538 5980.231964 C 4362.874639 5980.231964 4366.757253 5983.143925 4543.416193 6157.861557 C 4642.422851 6254.926908 4728.811013 6350.050953 4736.576242 6369.464023 C 4755.018658 6411.202124 4747.25343 6450.028264 4712.309904 6483.030484 C 4678.337031 6515.06205 4633.686969 6522.827278 4594.860829 6506.326168 Z M 4594.860829 6506.326168 " transform="matrix(0.00402435,0,0,-0.00402435,3.618044,29.94155)"/>
<path style="fill-rule:nonzero;fill:rgb(100%,76.470588%,52.54902%);fill-opacity:1;stroke-width:1;stroke-linecap:butt;stroke-linejoin:miter;stroke:rgb(100%,56.078431%,12.156863%);stroke-opacity:1;stroke-miterlimit:4;" d="M 3818.338019 5701.654406 C 3736.803124 5637.591274 3039.873902 4934.838131 3024.343446 4901.835912 C 3000.077108 4851.361929 3020.460832 4793.122719 3069.964161 4765.94442 C 3143.733828 4727.11828 3136.939253 4721.294359 3583.439869 5167.794974 L 3990.143691 5576.440103 L 3990.143691 5618.178204 C 3990.143691 5671.564147 3977.525195 5695.830485 3939.669708 5715.243555 C 3895.9903 5737.568586 3857.164159 5733.685972 3818.338019 5701.654406 Z M 3818.338019 5701.654406 " transform="matrix(0.00402435,0,0,-0.00402435,3.618044,29.94155)"/>
<path style="fill-rule:nonzero;fill:rgb(100%,76.470588%,52.54902%);fill-opacity:1;stroke-width:1;stroke-linecap:butt;stroke-linejoin:miter;stroke:rgb(100%,56.078431%,12.156863%);stroke-opacity:1;stroke-miterlimit:4;" d="M 4874.40904 5503.64109 C 4835.5829 5485.198673 4816.16983 5450.255146 4817.140483 5403.663778 C 4818.111137 5356.101756 4843.348128 5323.099536 4888.968843 5308.539734 C 4955.943935 5289.126663 5016.124453 5325.040843 5025.830988 5391.045282 C 5033.596216 5437.636651 5017.095107 5476.462791 4978.268966 5499.758476 C 4939.442826 5524.024813 4916.147141 5524.995467 4874.40904 5503.64109 Z M 4874.40904 5503.64109 " transform="matrix(0.00402435,0,0,-0.00402435,3.618044,29.94155)"/>
<path style="fill-rule:nonzero;fill:rgb(100%,76.470588%,52.54902%);fill-opacity:1;stroke-width:1;stroke-linecap:butt;stroke-linejoin:miter;stroke:rgb(100%,56.078431%,12.156863%);stroke-opacity:1;stroke-miterlimit:4;" d="M 1878.001647 5140.616676 C 1845.970082 5129.939487 1799.378713 5107.614457 1773.171068 5091.113347 C 1745.99277 5074.612237 1354.819404 4690.233446 903.465521 4237.908909 C 115.294869 3448.767604 79.380689 3411.88277 49.29043 3344.907678 C 21.141478 3285.697814 16.288211 3260.460822 12.405597 3178.925927 C 7.552329 3083.801883 8.522983 3078.948616 93.940492 2758.632957 C 490.937778 1275.47439 605.474893 859.064033 626.82927 816.355278 C 663.714103 743.556265 756.896841 655.226795 831.637161 620.283269 C 866.580688 603.782159 995.677605 563.985365 1119.921254 530.983146 C 1244.164904 497.980926 1734.344928 366.942702 2209.965149 238.816438 C 2996.194494 27.213973 3081.612003 5.859595 3155.38167 5.859595 C 3254.388328 5.859595 3327.187342 27.213973 3404.839623 78.658609 C 3443.665763 103.8956 3775.629264 430.03518 4332.78438 987.190296 C 5159.781173 1815.157742 5201.519274 1857.866497 5207.343195 1897.663291 C 5214.13777 1947.16662 5194.724699 1982.110147 5149.103984 2006.376484 C 5075.334317 2044.231971 5122.89634 2085.970072 4160.008055 1125.993749 C 3209.738267 177.665267 3256.329635 220.374022 3155.38167 220.374022 C 3134.997946 220.374022 2798.181177 305.791531 2406.037158 410.62211 C 2014.863793 516.423343 1525.654422 647.461567 1319.875878 701.818164 C 1114.097333 757.145414 932.585126 807.619397 918.995977 816.355278 C 886.964411 831.885734 821.930626 902.743441 810.282784 935.74566 C 801.546902 955.15873 555.971564 1867.573032 263.804856 2963.440848 C 218.184141 3133.305212 217.213488 3143.011747 227.890676 3197.368344 C 233.714597 3228.429257 251.186361 3270.167358 264.77551 3288.609774 C 278.364659 3308.993498 644.301033 3678.812486 1077.2125 4110.753299 C 1613.013239 4645.583385 1878.972301 4904.747872 1907.121253 4919.307675 C 1979.920266 4955.221855 2022.629021 4956.192509 2153.667245 4921.248982 C 2284.705469 4886.305456 2313.825075 4887.276109 2353.621869 4927.072903 C 2374.976246 4947.456627 2379.829513 4962.987083 2379.829513 4999.871917 C 2379.829513 5071.700277 2354.592522 5091.113347 2211.906456 5128.968834 C 2072.13235 5165.853667 1968.272424 5168.765628 1878.001647 5140.616676 Z M 1878.001647 5140.616676 " transform="matrix(0.00402435,0,0,-0.00402435,3.618044,29.94155)"/>
<path style="fill-rule:nonzero;fill:rgb(100%,76.470588%,52.54902%);fill-opacity:1;stroke-width:1;stroke-linecap:butt;stroke-linejoin:miter;stroke:rgb(100%,56.078431%,12.156863%);stroke-opacity:1;stroke-miterlimit:4;" d="M 4450.233455 5071.700277 C 4433.732346 5069.75897 4355.109411 4998.901263 4232.807069 4875.628267 L 4039.64702 4685.380179 L 4039.64702 4638.78881 C 4039.64702 4556.283262 4111.47538 4502.897318 4182.333086 4532.987577 C 4224.071187 4552.400647 4564.77057 4895.041337 4580.301026 4933.867478 C 4608.449978 5010.549105 4535.650965 5087.230733 4450.233455 5071.700277 Z M 4450.233455 5071.700277 " transform="matrix(0.00402435,0,0,-0.00402435,3.618044,29.94155)"/>
<path style="fill-rule:nonzero;fill:rgb(100%,76.470588%,52.54902%);fill-opacity:1;stroke-width:1;stroke-linecap:butt;stroke-linejoin:miter;stroke:rgb(100%,56.078431%,12.156863%);stroke-opacity:1;stroke-miterlimit:4;" d="M 5327.704231 4751.384618 C 5299.555279 4726.147626 5294.702011 4715.470438 5294.702011 4674.70299 C 5294.702011 4634.906196 5299.555279 4624.229007 5327.704231 4598.992016 C 5417.004354 4520.369082 5546.101271 4614.522472 5494.656635 4723.235666 C 5464.566376 4787.298797 5383.031481 4799.917293 5327.704231 4751.384618 Z M 5327.704231 4751.384618 " transform="matrix(0.00402435,0,0,-0.00402435,3.618044,29.94155)"/>
<path style="fill-rule:nonzero;fill:rgb(100%,76.470588%,52.54902%);fill-opacity:1;stroke-width:1;stroke-linecap:butt;stroke-linejoin:miter;stroke:rgb(100%,56.078431%,12.156863%);stroke-opacity:1;stroke-miterlimit:4;" d="M 2444.863299 4331.091647 C 2429.332843 4321.385112 2241.026061 4136.960944 2028.452942 3923.417171 L 1640.191537 3534.185113 L 1640.191537 3487.593744 C 1640.191537 3403.146889 1717.843818 3346.848985 1785.789564 3382.763165 C 1830.439625 3407.029503 2597.2559 4180.640352 2609.874396 4213.642572 C 2644.817922 4307.795962 2533.192768 4387.38955 2444.863299 4331.091647 Z M 2444.863299 4331.091647 " transform="matrix(0.00402435,0,0,-0.00402435,3.618044,29.94155)"/>
<path style="fill-rule:nonzero;fill:rgb(100%,76.470588%,52.54902%);fill-opacity:1;stroke-width:1;stroke-linecap:butt;stroke-linejoin:miter;stroke:rgb(100%,56.078431%,12.156863%);stroke-opacity:1;stroke-miterlimit:4;" d="M 3685.358488 4315.56119 C 3645.561694 4298.089427 2854.479081 3502.153547 2844.772546 3472.063288 C 2817.594248 3379.851204 2913.688945 3300.257616 2998.135801 3343.937025 C 3040.844555 3367.232709 3818.338019 4150.550093 3829.985861 4183.552313 C 3861.046773 4267.999168 3766.893383 4353.416677 3685.358488 4315.56119 Z M 3685.358488 4315.56119 " transform="matrix(0.00402435,0,0,-0.00402435,3.618044,29.94155)"/>
<path style="fill-rule:nonzero;fill:rgb(100%,76.470588%,52.54902%);fill-opacity:1;stroke-width:1;stroke-linecap:butt;stroke-linejoin:miter;stroke:rgb(100%,56.078431%,12.156863%);stroke-opacity:1;stroke-miterlimit:4;" d="M 4762.783886 4158.315321 C 4719.104478 4146.667479 4689.984873 4105.900032 4689.984873 4058.33801 C 4689.984873 4003.010759 4741.429509 3949.624816 4794.815452 3949.624816 C 4849.172049 3949.624816 4899.646032 4003.010759 4899.646032 4058.33801 C 4899.646032 4130.16637 4834.612246 4176.757738 4762.783886 4158.315321 Z M 4762.783886 4158.315321 " transform="matrix(0.00402435,0,0,-0.00402435,3.618044,29.94155)"/>
<path style="fill-rule:nonzero;fill:rgb(100%,76.470588%,52.54902%);fill-opacity:1;stroke-width:1;stroke-linecap:butt;stroke-linejoin:miter;stroke:rgb(100%,56.078431%,12.156863%);stroke-opacity:1;stroke-miterlimit:4;" d="M 4310.45935 3711.814706 C 4283.281051 3706.961438 3966.848006 3402.176235 3943.552322 3357.526174 C 3895.9903 3267.255397 3981.407809 3164.366125 4071.678586 3203.192265 C 4117.299301 3222.605335 4435.673653 3546.803609 4445.380188 3581.747135 C 4454.116069 3617.661315 4433.732346 3674.929872 4406.554047 3693.372289 C 4379.375749 3709.873399 4341.520262 3717.638627 4310.45935 3711.814706 Z M 4310.45935 3711.814706 " transform="matrix(0.00402435,0,0,-0.00402435,3.618044,29.94155)"/>
<path style="fill-rule:nonzero;fill:rgb(100%,76.470588%,52.54902%);fill-opacity:1;stroke-width:1;stroke-linecap:butt;stroke-linejoin:miter;stroke:rgb(100%,56.078431%,12.156863%);stroke-opacity:1;stroke-miterlimit:4;" d="M 1235.429022 3118.74541 C 1204.36811 3102.2443 899.582907 2798.429751 884.052451 2768.339492 C 859.786113 2721.748123 865.610034 2681.951329 904.436175 2644.095842 C 931.614473 2615.94689 945.203622 2610.122969 981.117802 2610.122969 C 1023.826557 2610.122969 1026.738517 2612.064276 1207.28007 2792.605829 C 1387.821624 2973.147383 1389.762931 2976.059343 1389.762931 3018.768098 C 1389.762931 3099.332339 1303.374768 3154.65959 1235.429022 3118.74541 Z M 1235.429022 3118.74541 " transform="matrix(0.00402435,0,0,-0.00402435,3.618044,29.94155)"/>
<path style="fill-rule:nonzero;fill:rgb(100%,76.470588%,52.54902%);fill-opacity:1;stroke-width:1;stroke-linecap:butt;stroke-linejoin:miter;stroke:rgb(100%,56.078431%,12.156863%);stroke-opacity:1;stroke-miterlimit:4;" d="M 2482.718786 3116.804103 C 2460.393755 3105.15626 1234.458369 1886.015449 1198.544189 1841.365387 C 1138.363671 1763.713106 1227.663794 1643.352071 1320.846531 1678.295597 C 1351.907444 1689.943439 2605.021128 2932.379935 2626.375506 2971.206076 C 2674.908181 3067.300773 2575.901523 3168.248739 2482.718786 3116.804103 Z M 2482.718786 3116.804103 " transform="matrix(0.00402435,0,0,-0.00402435,3.618044,29.94155)"/>
<path style="fill-rule:nonzero;fill:rgb(100%,76.470588%,52.54902%);fill-opacity:1;stroke-width:1;stroke-linecap:butt;stroke-linejoin:miter;stroke:rgb(100%,56.078431%,12.156863%);stroke-opacity:1;stroke-miterlimit:4;" d="M 3504.816934 2926.556014 C 3494.139746 2919.76144 3335.923223 2764.456878 3153.440363 2580.03271 C 2870.980191 2294.660578 2821.476862 2240.303981 2814.682287 2209.243068 C 2799.151831 2123.825559 2880.686726 2056.850467 2961.250967 2089.852686 C 3001.047761 2107.32445 3637.796466 2754.750342 3657.209536 2798.429751 C 3694.094369 2886.75922 3588.293136 2977.029997 3504.816934 2926.556014 Z M 3504.816934 2926.556014 " transform="matrix(0.00402435,0,0,-0.00402435,3.618044,29.94155)"/>
<path style="fill-rule:nonzero;fill:rgb(100%,76.470588%,52.54902%);fill-opacity:1;stroke-width:1;stroke-linecap:butt;stroke-linejoin:miter;stroke:rgb(100%,56.078431%,12.156863%);stroke-opacity:1;stroke-miterlimit:4;" d="M 4671.542456 2805.224325 C 4599.714096 2774.163413 4593.890175 2660.596952 4662.806575 2619.829504 C 4681.248991 2609.152316 4704.544676 2600.416434 4718.133825 2600.416434 C 4773.461075 2600.416434 4829.758979 2655.743684 4829.758979 2710.100281 C 4829.758979 2746.985114 4799.66872 2790.664522 4764.725193 2806.194979 C 4722.987092 2822.696088 4714.251211 2822.696088 4671.542456 2805.224325 Z M 4671.542456 2805.224325 " transform="matrix(0.00402435,0,0,-0.00402435,3.618044,29.94155)"/>
<path style="fill-rule:nonzero;fill:rgb(100%,76.470588%,52.54902%);fill-opacity:1;stroke-width:1;stroke-linecap:butt;stroke-linejoin:miter;stroke:rgb(100%,56.078431%,12.156863%);stroke-opacity:1;stroke-miterlimit:4;" d="M 4274.54517 2381.04874 C 4259.014713 2371.342205 4167.773283 2283.983389 4073.619893 2188.859345 C 3888.225072 1999.58191 3875.606576 1982.110147 3903.755528 1916.105708 C 3923.168598 1871.455646 3972.671927 1845.248001 4022.175256 1853.983883 C 4049.353555 1858.837151 4094.003616 1897.663291 4248.337525 2052.967853 L 4439.556267 2246.127902 L 4439.556267 2293.689924 C 4439.556267 2332.516065 4434.702999 2347.075867 4411.407315 2371.342205 C 4376.463788 2406.285732 4321.136538 2410.168346 4274.54517 2381.04874 Z M 4274.54517 2381.04874 " transform="matrix(0.00402435,0,0,-0.00402435,3.618044,29.94155)"/>
<path style="fill-rule:nonzero;fill:rgb(100%,76.470588%,52.54902%);fill-opacity:1;stroke-width:1;stroke-linecap:butt;stroke-linejoin:miter;stroke:rgb(100%,56.078431%,12.156863%);stroke-opacity:1;stroke-miterlimit:4;" d="M 2309.942461 1721.975005 C 1841.116814 1237.618903 1841.116814 1237.618903 1874.119033 1167.73185 C 1892.56145 1127.935056 1924.593016 1110.463292 1977.008306 1110.463292 C 2010.981179 1110.463292 2027.482288 1123.081788 2203.170574 1297.79942 C 2307.0305 1400.688693 2432.244803 1528.814956 2480.777479 1582.200899 C 2566.194988 1675.383637 2570.077602 1682.178211 2570.077602 1725.857619 C 2570.077602 1764.68376 2565.224334 1777.302255 2539.016689 1800.59794 C 2513.779698 1823.893624 2499.219895 1829.717545 2462.335062 1829.717545 C 2415.743693 1829.717545 2413.802386 1828.746892 2309.942461 1721.975005 Z M 2309.942461 1721.975005 " transform="matrix(0.00402435,0,0,-0.00402435,3.618044,29.94155)"/>
<path style="fill-rule:nonzero;fill:rgb(100%,76.470588%,52.54902%);fill-opacity:1;stroke-width:1;stroke-linecap:butt;stroke-linejoin:miter;stroke:rgb(100%,56.078431%,12.156863%);stroke-opacity:1;stroke-miterlimit:4;" d="M 3257.300289 1357.979938 C 3088.406577 1186.174266 2941.837897 1031.840358 2934.072669 1016.309902 C 2888.451954 931.863046 2978.722731 831.885734 3068.022854 868.770568 C 3098.113113 882.359717 3687.299795 1487.076855 3707.683518 1526.873649 C 3741.656391 1589.966128 3685.358488 1669.559716 3606.735553 1669.559716 C 3564.997452 1670.530369 3564.026799 1669.559716 3257.300289 1357.979938 Z M 3257.300289 1357.979938 " transform="matrix(0.00402435,0,0,-0.00402435,3.618044,29.94155)"/>
</g>
</svg>
